<mxfile host="app.diagrams.net" agent="Mozilla/5.0 (Macintosh; Intel Mac OS X 10_15_7) AppleWebKit/537.36 (KHTML, like Gecko) Chrome/136.0.0.0 Safari/537.36" version="27.0.6">
  <diagram name="Page-1" id="l2bJz8Er5ASB69V81Q89">
    <mxGraphModel dx="2452" dy="1016" grid="1" gridSize="10" guides="1" tooltips="1" connect="1" arrows="1" fold="1" page="1" pageScale="1" pageWidth="1100" pageHeight="850" math="0" shadow="0">
      <root>
        <mxCell id="0" />
        <mxCell id="1" parent="0" />
        <mxCell id="nSG7TX2_uHuj6k7vmEff-3" value="VPC" style="points=[[0,0],[0.25,0],[0.5,0],[0.75,0],[1,0],[1,0.25],[1,0.5],[1,0.75],[1,1],[0.75,1],[0.5,1],[0.25,1],[0,1],[0,0.75],[0,0.5],[0,0.25]];outlineConnect=0;gradientColor=none;html=1;whiteSpace=wrap;fontSize=12;fontStyle=0;container=1;pointerEvents=0;collapsible=0;recursiveResize=0;shape=mxgraph.aws4.group;grIcon=mxgraph.aws4.group_vpc2;strokeColor=#8C4FFF;fillColor=none;verticalAlign=top;align=left;spacingLeft=30;fontColor=#AAB7B8;dashed=0;" vertex="1" parent="1">
          <mxGeometry x="80" y="110" width="600" height="330" as="geometry" />
        </mxCell>
        <mxCell id="nSG7TX2_uHuj6k7vmEff-10" value="" style="rounded=0;whiteSpace=wrap;html=1;strokeColor=light-dark(#4bfa00, #ededed);strokeWidth=5;" vertex="1" parent="nSG7TX2_uHuj6k7vmEff-3">
          <mxGeometry y="10" width="300" height="160" as="geometry" />
        </mxCell>
        <mxCell id="nSG7TX2_uHuj6k7vmEff-2" value="" style="outlineConnect=0;dashed=0;verticalLabelPosition=bottom;verticalAlign=top;align=center;html=1;shape=mxgraph.aws3.virtual_private_cloud;fillColor=#F58534;gradientColor=none;" vertex="1" parent="nSG7TX2_uHuj6k7vmEff-3">
          <mxGeometry x="-10" y="-20" width="79.5" height="54" as="geometry" />
        </mxCell>
        <mxCell id="nSG7TX2_uHuj6k7vmEff-11" value="" style="rounded=0;whiteSpace=wrap;html=1;strokeColor=#FF0000;perimeterSpacing=0;strokeWidth=5;" vertex="1" parent="nSG7TX2_uHuj6k7vmEff-3">
          <mxGeometry y="180" width="300" height="150" as="geometry" />
        </mxCell>
        <mxCell id="nSG7TX2_uHuj6k7vmEff-12" value="" style="rounded=0;whiteSpace=wrap;html=1;strokeColor=light-dark(#4bfa00, #ededed);strokeWidth=5;" vertex="1" parent="nSG7TX2_uHuj6k7vmEff-3">
          <mxGeometry x="300" y="10" width="300" height="160" as="geometry" />
        </mxCell>
        <mxCell id="nSG7TX2_uHuj6k7vmEff-13" value="" style="rounded=0;whiteSpace=wrap;html=1;strokeColor=#FF0000;perimeterSpacing=0;strokeWidth=5;" vertex="1" parent="nSG7TX2_uHuj6k7vmEff-3">
          <mxGeometry x="300" y="180" width="300" height="150" as="geometry" />
        </mxCell>
        <mxCell id="nSG7TX2_uHuj6k7vmEff-16" value="Priv-Sub-1" style="text;html=1;align=center;verticalAlign=middle;whiteSpace=wrap;rounded=0;fillColor=#f8cecc;strokeColor=#b85450;" vertex="1" parent="nSG7TX2_uHuj6k7vmEff-3">
          <mxGeometry y="180" width="60" height="30" as="geometry" />
        </mxCell>
        <mxCell id="nSG7TX2_uHuj6k7vmEff-17" value="Priv-Sub-2" style="text;html=1;align=center;verticalAlign=middle;whiteSpace=wrap;rounded=0;fillColor=#f8cecc;strokeColor=#b85450;" vertex="1" parent="nSG7TX2_uHuj6k7vmEff-3">
          <mxGeometry x="310" y="180" width="60" height="30" as="geometry" />
        </mxCell>
        <mxCell id="nSG7TX2_uHuj6k7vmEff-14" value="Pub-Sub-1" style="text;html=1;align=center;verticalAlign=middle;whiteSpace=wrap;rounded=0;fillColor=#d5e8d4;strokeColor=#82b366;" vertex="1" parent="nSG7TX2_uHuj6k7vmEff-3">
          <mxGeometry x="69.5" y="10" width="60" height="30" as="geometry" />
        </mxCell>
        <mxCell id="nSG7TX2_uHuj6k7vmEff-15" value="Pub-Sub-2" style="text;html=1;align=center;verticalAlign=middle;whiteSpace=wrap;rounded=0;fillColor=#d5e8d4;strokeColor=#82b366;" vertex="1" parent="nSG7TX2_uHuj6k7vmEff-3">
          <mxGeometry x="300" y="10" width="60" height="30" as="geometry" />
        </mxCell>
        <mxCell id="nSG7TX2_uHuj6k7vmEff-7" value="" style="endArrow=none;html=1;rounded=0;fillColor=#dae8fc;strokeColor=#6c8ebf;strokeWidth=6;" edge="1" parent="1">
          <mxGeometry width="50" height="50" relative="1" as="geometry">
            <mxPoint x="380" y="500" as="sourcePoint" />
            <mxPoint x="380" y="60" as="targetPoint" />
          </mxGeometry>
        </mxCell>
        <mxCell id="nSG7TX2_uHuj6k7vmEff-8" value="AZa" style="text;html=1;align=center;verticalAlign=middle;whiteSpace=wrap;rounded=0;fontSize=26;fontColor=light-dark(#6c8ebf, #ededed);" vertex="1" parent="1">
          <mxGeometry x="200" y="460" width="60" height="30" as="geometry" />
        </mxCell>
        <mxCell id="nSG7TX2_uHuj6k7vmEff-9" value="AZb" style="text;html=1;align=center;verticalAlign=middle;whiteSpace=wrap;rounded=0;labelBackgroundColor=default;fontSize=26;fontColor=light-dark(#6c8ebf, #ededed);" vertex="1" parent="1">
          <mxGeometry x="490" y="450" width="60" height="50" as="geometry" />
        </mxCell>
      </root>
    </mxGraphModel>
  </diagram>
</mxfile>
